<?xml version="1.0" encoding="utf-8"?><svg width="722" height="1720" viewBox="0 0 722 1720" xmlns="http://www.w3.org/2000/svg" xmlns:xlink="http://www.w3.org/1999/xlink"><svg width="16" height="26" fill="none" viewBox="-1 -1 16 26" id="arrow-left" xmlns="http://www.w3.org/2000/svg"><path d="M.94 10.94a1.5 1.5 0 000 2.12l9.545 9.547a1.5 1.5 0 102.122-2.122L4.12 12l8.486-8.485a1.5 1.5 0 10-2.122-2.122L.94 10.94zM4 10.5H2v3h2v-3z" fill="#5F5F79"/></svg><svg width="16" height="26" fill="none" viewBox="-1 -1 16 26" id="arrow-right" y="26" xmlns="http://www.w3.org/2000/svg"><path d="M13.06 10.94a1.5 1.5 0 010 2.12l-9.545 9.547a1.5 1.5 0 11-2.122-2.122L9.88 12 1.393 3.515a1.5 1.5 0 112.122-2.122l9.546 9.546zM10 10.5h2v3h-2v-3z" fill="#5F5F79"/></svg><svg width="722" height="741" fill="none" viewBox="-1 -1 722 741" id="big-eclipse" y="52" xmlns="http://www.w3.org/2000/svg"><circle cx="482" cy="257" r="482" fill="url(#cpaint0_linear)" fill-opacity=".5"/><defs><linearGradient id="cpaint0_linear" x1="429.5" y1="739" x2="604.5" y2="-5.5" gradientUnits="userSpaceOnUse"><stop stop-color="#5F5F79"/><stop offset="1" stop-color="#5F5F79" stop-opacity="0"/></linearGradient></defs></svg><svg width="35" height="35" fill="none" viewBox="-1 -1 35 35" id="cart" y="793" xmlns="http://www.w3.org/2000/svg"><circle cx="16.5" cy="16.5" r="16.5" fill="#64647E"/><path d="M25.512 9.851c.293.302.31.644.04.962-.195.22-.228.228-1.197.268-.93.041-1.01.058-1.035.204-.008.09-.073.367-.13.611l-.514 1.997c-.065.268-.17.708-.244.977-.065.27-.171.71-.245.978-.065.269-.17.693-.228.937-.595 2.428-.676 2.624-1.206 2.9a2.468 2.468 0 01-.538.188c-.31.057-.383.196-.114.237.261.04.921.741 1.092 1.165.717 1.76-1.19 3.61-2.9 2.81-1.092-.504-1.606-1.694-1.198-2.77.179-.464.66-.994 1.043-1.157.154-.065.26-.154.236-.195-.065-.106-4.987-.106-5.052 0-.024.04.082.13.236.195.367.155.864.685 1.035 1.125.717 1.752-1.197 3.601-2.9 2.803-1.092-.505-1.606-1.695-1.198-2.77.179-.465.66-.994 1.043-1.157.31-.13.301-.277-.017-.277-.244 0-.757-.253-.937-.457-.17-.195-.48-.872-.48-1.06 0-.072-.057-.3-.114-.512-.066-.204-.18-.587-.253-.84-.22-.815-.367-1.352-.489-1.792-.057-.236-.171-.652-.244-.921a34.503 34.503 0 01-.261-.937 21.089 21.089 0 00-.236-.815 2.376 2.376 0 01-.114-.554v-.18h6.07c4.913 0 6.087.017 6.12.107.015.057-.017.244-.09.407-.066.163-.123.4-.123.53s-.049.285-.106.334c-.081.065-1.564.098-5.035.106l-4.922.024.017.204c.016.114.081.407.154.652.074.244.188.643.245.872.065.236.171.635.236.88.074.244.18.651.245.896.073.244.187.66.26.912.074.261.139.522.155.579.025.081.913.098 4.245.081 4.148-.024 4.221-.024 4.246-.187a5.86 5.86 0 01.146-.652c.074-.269.18-.692.236-.937.123-.489.286-1.149.481-1.939.074-.277.18-.717.245-.978.065-.252.179-.7.252-.994.074-.293.188-.75.253-1.018.342-1.37.489-1.646 1.018-1.915.261-.139.481-.163 1.418-.163h1.117l.236.236zM18.65 21.584c-.163.163-.236.318-.236.497 0 .35.383.734.733.734s.733-.383.733-.734c0-.179-.073-.334-.236-.497-.326-.317-.668-.317-.994 0zm-6.6 0c-.163.163-.236.318-.236.497 0 .35.383.734.733.734s.733-.383.733-.734c0-.179-.073-.334-.236-.497-.326-.317-.668-.317-.994 0z" fill="#fff"/></svg><svg width="22" height="22" fill="none" viewBox="-1 -1 22 22" id="dot" y="828" xmlns="http://www.w3.org/2000/svg"><circle cx="10" cy="10" r="8.5" stroke="#5F5F79" stroke-width="3"/></svg><svg width="22" height="22" fill="none" viewBox="-1 -1 22 22" id="dot-full" y="850" xmlns="http://www.w3.org/2000/svg"><circle cx="10" cy="10" r="10" fill="#5F5F79"/></svg><svg width="46" height="24" fill="none" viewBox="-1 -1 46 24" id="logo" y="872" xmlns="http://www.w3.org/2000/svg"><circle opacity=".5" cx="11" cy="11" r="11" fill="#5F5F79"/><circle opacity=".5" cx="22" cy="11" r="11" fill="#5F5F79"/><circle opacity=".5" cx="33" cy="11" r="11" fill="#5F5F79"/></svg><svg width="498" height="498" fill="none" viewBox="-1 -1 498 498" id="mid-eclipse" y="896" xmlns="http://www.w3.org/2000/svg"><circle cx="248" cy="248" r="248" fill="url(#hpaint0_linear)" fill-opacity=".3"/><defs><linearGradient id="hpaint0_linear" x1="220.988" y1="496" x2="311.029" y2="112.938" gradientUnits="userSpaceOnUse"><stop stop-color="#5F5F79"/><stop offset="1" stop-color="#5F5F79" stop-opacity="0"/></linearGradient></defs></svg><svg width="382" height="326" fill="none" viewBox="-1 -1 382 326" id="small-eclipse" y="1394" xmlns="http://www.w3.org/2000/svg"><circle cx="190" cy="190" r="190" fill="url(#ipaint0_linear)" fill-opacity=".15"/><defs><linearGradient id="ipaint0_linear" x1="169.305" y1="380" x2="238.288" y2="86.525" gradientUnits="userSpaceOnUse"><stop stop-color="#5F5F79"/><stop offset="1" stop-color="#5F5F79" stop-opacity="0"/></linearGradient></defs></svg></svg>